<?xml version="1.0" standalone="no"?>
<!DOCTYPE svg PUBLIC "-//W3C//DTD SVG 20010904//EN"
 "http://www.w3.org/TR/2001/REC-SVG-20010904/DTD/svg10.dtd">
<svg version="1.0" xmlns="http://www.w3.org/2000/svg"
 width="192.000000pt" height="192.000000pt" viewBox="0 0 192.000000 192.000000"
 preserveAspectRatio="xMidYMid meet">

<g transform="translate(0.000000,192.000000) scale(0.100000,-0.100000)"
fill="#000000" stroke="none">
<path d="M1 1523 l0 -398 19 70 c88 333 330 590 653 691 31 10 57 21 57 26 0
4 -164 8 -365 8 l-365 0 1 -397z"/>
<path d="M768 1913 c7 -3 16 -2 19 1 4 3 -2 6 -13 5 -11 0 -14 -3 -6 -6z"/>
<path d="M1138 1913 c7 -3 16 -2 19 1 4 3 -2 6 -13 5 -11 0 -14 -3 -6 -6z"/>
<path d="M1194 1911 c3 -4 45 -22 93 -40 303 -108 530 -359 613 -674 l19 -72
0 398 1 397 -366 0 c-201 0 -363 -4 -360 -9z"/>
<path d="M870 1874 c-14 -2 -44 -7 -67 -10 -38 -5 -43 -8 -43 -30 0 -15 4 -23
10 -19 6 4 23 -7 39 -24 16 -17 34 -31 41 -31 21 0 35 -24 58 -97 22 -71 24
-73 55 -73 30 1 34 6 75 89 23 48 42 94 42 103 0 21 22 45 48 53 34 10 28 -16
-17 -64 -25 -27 -37 -49 -34 -60 3 -10 0 -22 -6 -25 -6 -4 -11 -15 -11 -24 0
-9 -12 -28 -26 -42 -24 -22 -25 -25 -8 -31 11 -4 -19 -7 -66 -7 -47 0 -75 3
-62 5 18 4 21 8 12 18 -6 7 -10 17 -9 21 6 25 -45 94 -68 94 -7 0 -17 10 -22
23 -5 12 -19 30 -30 39 -21 18 -21 18 -22 -50 -1 -83 -17 -133 -18 -56 -1 28
-4 79 -7 113 -8 70 2 69 -123 20 -151 -60 -320 -196 -407 -326 -218 -328 -217
-721 1 -1046 31 -46 45 -78 45 -100 l-1 -32 -35 40 c-85 97 -157 235 -194 376
l-19 74 0 -397 -1 -398 398 1 397 0 -70 19 c-127 33 -259 95 -330 154 l-30 25
39 1 c26 0 56 -11 95 -34 141 -84 278 -120 461 -120 183 0 320 36 461 120 39
23 69 34 95 34 l39 -1 -30 -25 c-71 -59 -203 -121 -330 -154 l-70 -19 398 0
397 -1 -1 398 0 397 -19 -74 c-37 -141 -109 -279 -194 -376 l-35 -40 -1 32 c0
22 14 54 45 100 218 325 219 718 1 1046 -86 130 -256 266 -407 326 -123 49
-113 57 -119 -99 -5 -135 -20 -150 -20 -20 0 36 -3 88 -6 117 -6 47 -9 51 -38
57 -42 9 -225 16 -256 10z m-113 -286 c-3 -8 -6 -5 -6 6 -1 11 2 17 5 13 3 -3
4 -12 1 -19z m188 -113 c10 -80 19 -86 60 -43 34 37 34 37 20 73 -17 40 -1 50
17 10 11 -24 12 -24 30 -8 24 21 36 9 15 -15 -19 -21 -21 -31 -8 -51 7 -11 17
-8 49 17 57 45 66 39 12 -7 -25 -22 -42 -42 -39 -45 3 -3 32 3 65 14 32 12 68
19 79 18 17 -3 16 -6 -10 -20 l-30 -17 41 -1 c22 0 49 -7 60 -15 17 -13 12
-14 -56 -14 -79 1 -130 -8 -130 -21 0 -13 14 -20 77 -36 31 -8 77 -24 101 -34
37 -16 48 -18 60 -8 13 11 15 10 10 -3 -4 -9 2 -20 13 -27 26 -16 26 -36 0
-22 -11 5 -24 10 -30 10 -12 0 -91 -113 -91 -130 0 -6 11 -15 24 -21 20 -9 31
-7 70 16 25 14 53 25 63 23 13 -3 2 -13 -35 -33 -64 -37 -66 -60 -4 -59 44 1
56 -10 22 -21 -18 -6 -19 -8 -4 -31 20 -29 8 -31 -22 -3 -20 19 -26 19 -63 8
l-42 -12 53 -54 c64 -65 55 -70 -15 -8 -55 48 -72 53 -101 32 -18 -13 -18 -15
2 -60 15 -35 31 -51 64 -68 23 -12 38 -24 31 -26 -7 -2 -21 0 -32 6 -29 16
-31 14 -19 -20 17 -48 0 -46 -21 3 -10 25 -27 48 -36 52 -15 5 -16 -1 -10 -69
5 -47 4 -75 -3 -75 -5 0 -13 36 -16 79 -6 69 -10 82 -31 95 -13 9 -28 16 -33
16 -14 0 -82 -113 -82 -136 0 -12 14 -38 30 -59 35 -44 32 -59 -5 -25 l-25 23
0 -26 c0 -15 -4 -27 -10 -27 -5 0 -10 15 -10 34 0 49 -13 51 -41 6 -33 -54
-46 -51 -14 3 14 24 25 50 25 57 0 16 -39 60 -53 60 -5 0 -31 -16 -58 -36 -43
-31 -49 -40 -49 -72 l-1 -37 -13 30 c-8 19 -15 25 -20 17 -4 -7 -15 -12 -23
-12 -13 0 -11 6 10 28 50 52 31 66 -41 32 -22 -11 -44 -20 -48 -20 -11 0 18
30 30 31 6 0 27 10 46 23 32 22 34 25 32 77 -4 72 -18 114 -46 132 -23 15 -24
14 -64 -56 -22 -40 -46 -84 -53 -99 -11 -25 -29 -38 -29 -22 0 3 23 50 50 103
50 97 58 121 41 121 -6 0 -105 -107 -128 -139 -2 -2 -5 -2 -8 1 -3 2 23 37 56
77 34 40 59 74 56 77 -2 2 -31 -16 -64 -41 -84 -62 -101 -56 -28 10 49 45 57
56 45 65 -23 15 -49 12 -78 -11 -30 -23 -45 -8 -19 19 15 14 15 17 -1 28 -15
12 -13 13 16 14 39 0 40 6 5 42 -35 37 -22 48 17 14 17 -14 36 -26 42 -26 6 0
41 23 79 51 63 46 69 54 69 86 0 36 0 36 -37 29 -82 -14 -158 -18 -143 -7 8 5
36 13 62 16 63 9 69 21 16 36 -24 6 -38 14 -31 16 6 2 29 0 50 -6 25 -7 39 -7
41 -1 2 6 10 10 18 10 25 0 15 27 -16 40 -16 7 -30 17 -30 22 0 6 8 7 18 3 9
-4 23 -9 30 -12 8 -3 12 5 13 23 1 29 1 29 9 -4 9 -40 3 -34 73 -66 101 -46
111 -35 56 59 -52 90 -45 106 10 21 24 -36 45 -66 48 -66 3 0 2 35 -2 78 -7
85 8 83 20 -3z m-247 -1062 c20 -17 26 -37 23 -75 -1 -22 -55 -40 -85 -28 -42
16 -42 102 1 113 33 9 41 7 61 -10z m372 8 c0 -5 9 -11 20 -14 28 -7 42 -48
27 -86 -13 -35 -17 -37 -57 -16 -36 19 -45 45 -29 90 12 31 39 50 39 26z m354
3 c24 -9 19 -22 -10 -26 -38 -4 -54 -33 -31 -55 13 -13 20 -15 29 -5 9 9 8 12
-5 12 -9 0 -17 5 -17 10 0 6 14 10 30 10 25 0 30 -4 30 -25 0 -48 -83 -54
-108 -9 -25 45 33 107 82 88z m-978 -29 c8 -31 -10 -55 -42 -55 -15 0 -24 -6
-24 -15 0 -8 -7 -15 -15 -15 -12 0 -15 13 -15 55 l0 55 45 0 c39 0 45 -3 51
-25z m72 0 c11 -14 23 -25 26 -25 3 0 6 11 6 25 0 16 6 25 15 25 12 0 15 -13
15 -55 0 -46 -3 -55 -17 -55 -10 0 -28 15 -40 33 l-23 32 0 -33 c0 -22 -5 -32
-15 -32 -12 0 -15 13 -15 55 0 63 15 72 48 30z m273 -12 l13 -38 14 38 c8 20
21 37 28 37 18 0 18 -5 -3 -62 -13 -38 -22 -48 -40 -48 -18 0 -24 8 -33 41 -6
22 -14 47 -17 55 -3 8 1 14 10 14 9 0 21 -16 28 -37z m197 -8 c12 -25 22 -52
22 -60 0 -20 -29 -19 -36 0 -8 20 -34 19 -50 -2 -9 -13 -16 -15 -24 -7 -15 15
27 114 49 114 10 0 26 -18 39 -45z m194 13 l16 -33 12 33 c14 38 46 46 36 9
-3 -13 -12 -39 -20 -59 -25 -60 -61 -36 -82 55 -9 39 18 36 38 -5z m128 -23
c0 -42 -3 -55 -15 -55 -12 0 -15 13 -15 55 0 42 3 55 15 55 12 0 15 -13 15
-55z m250 45 c0 -5 -11 -10 -25 -10 -14 0 -25 -4 -25 -10 0 -5 9 -10 20 -10
11 0 20 -7 20 -15 0 -8 -9 -15 -20 -15 -11 0 -20 -4 -20 -10 0 -5 11 -10 25
-10 14 0 25 -4 25 -10 0 -5 -20 -10 -45 -10 l-45 0 0 55 0 55 45 0 c25 0 45
-4 45 -10z m-905 -140 c3 -5 -2 -10 -12 -10 -17 -1 -17 -1 0 -14 35 -27 10
-68 -30 -50 -15 6 -14 8 6 12 l25 4 -24 18 c-20 15 -22 20 -11 34 15 18 37 21
46 6z m90 0 c3 -5 2 -10 -4 -10 -5 0 -11 -15 -13 -32 -2 -18 -7 -33 -13 -33
-5 0 -11 15 -13 33 -2 17 -8 32 -13 32 -6 0 -7 5 -4 10 3 6 17 10 30 10 13 0
27 -4 30 -10z m45 -25 c0 -24 5 -35 15 -35 10 0 15 11 15 35 0 19 5 35 10 35
11 0 14 -49 4 -74 -7 -19 -35 -21 -52 -4 -14 14 -16 78 -2 78 6 0 10 -16 10
-35z m138 23 c17 -17 15 -65 -4 -72 -42 -16 -54 -8 -54 39 0 40 2 45 23 45 13
0 28 -5 35 -12z m64 -33 c-2 -25 -8 -45 -13 -45 -5 0 -9 20 -9 45 0 29 4 45
13 45 8 0 11 -14 9 -45z m104 29 c-3 -9 -6 -29 -6 -45 0 -16 -4 -29 -10 -29
-5 0 -10 20 -10 45 0 35 4 45 16 45 11 0 14 -5 10 -16z m95 -5 c15 -29 -3 -69
-31 -69 -28 0 -46 40 -31 69 7 11 20 21 31 21 11 0 24 -10 31 -21z m84 11 c3
-5 -2 -10 -12 -10 -17 -1 -17 -1 0 -14 35 -27 10 -68 -30 -50 -15 6 -14 8 6
12 l25 4 -24 18 c-20 15 -22 20 -11 34 15 18 37 21 46 6z"/>
<path d="M1021 1414 c-15 -19 -18 -30 -11 -32 18 -6 51 31 41 46 -6 11 -13 7
-30 -14z"/>
<path d="M750 1370 c0 -16 7 -20 33 -20 l32 1 -24 19 c-30 25 -41 25 -41 0z"/>
<path d="M718 1353 c7 -3 16 -2 19 1 4 3 -2 6 -13 5 -11 0 -14 -3 -6 -6z"/>
<path d="M1048 1303 c-28 -7 -21 -36 15 -61 30 -21 32 -21 35 -4 4 22 -14 72
-25 71 -5 -1 -16 -3 -25 -6z"/>
<path d="M760 1290 c0 -5 7 -10 16 -10 8 0 12 5 9 10 -3 6 -10 10 -16 10 -5 0
-9 -4 -9 -10z"/>
<path d="M1120 1279 c0 -51 23 -95 66 -126 24 -18 47 -33 52 -33 5 0 28 27 51
60 l42 59 -30 16 c-33 17 -135 45 -163 45 -12 0 -18 -8 -18 -21z"/>
<path d="M800 1247 c-16 -8 -26 -23 -28 -40 -4 -35 7 -34 43 3 34 35 25 57
-15 37z"/>
<path d="M986 1222 c-9 -15 9 -49 33 -62 16 -8 18 -7 14 8 -7 29 -39 66 -47
54z"/>
<path d="M1059 1174 c18 -32 40 -66 48 -74 14 -13 15 -10 9 30 -8 51 -13 58
-57 84 l-33 19 33 -59z"/>
<path d="M676 1169 c-55 -39 -57 -42 -40 -60 22 -25 23 -25 72 13 32 24 42 39
42 60 0 15 -4 28 -8 28 -5 0 -35 -18 -66 -41z"/>
<path d="M848 1183 c-45 -50 -68 -91 -68 -121 0 -27 5 -32 88 -66 48 -20 92
-36 97 -36 7 0 8 27 3 78 -3 42 -7 89 -7 105 -1 33 -33 67 -64 67 -13 0 -35
-12 -49 -27z"/>
<path d="M990 1083 c0 -107 9 -143 38 -154 19 -7 32 -4 59 12 32 20 35 25 29
58 -7 44 -51 106 -93 133 l-33 20 0 -69z"/>
<path d="M1144 1108 c11 -70 34 -85 63 -42 17 27 17 27 -17 55 -46 39 -54 37
-46 -13z"/>
<path d="M1217 1050 c-21 -35 -7 -41 31 -14 18 13 21 19 11 30 -16 20 -22 18
-42 -16z"/>
<path d="M1267 1014 c-16 -9 -26 -18 -23 -21 10 -10 77 8 74 19 -6 18 -21 18
-51 2z"/>
<path d="M740 1011 c0 -5 7 -14 15 -21 16 -14 18 -10 9 14 -6 17 -24 22 -24 7z"/>
<path d="M780 1000 c0 -27 26 -67 71 -110 l51 -49 39 20 c29 14 39 26 39 43 0
19 -11 28 -59 50 -85 38 -141 56 -141 46z"/>
<path d="M794 873 c3 -21 6 -48 6 -60 0 -22 0 -22 35 -6 19 9 35 19 35 23 0
11 -62 80 -72 80 -7 0 -8 -14 -4 -37z"/>
<path d="M1120 891 c0 -5 7 -11 15 -15 9 -3 15 0 15 9 0 8 -7 15 -15 15 -8 0
-15 -4 -15 -9z"/>
<path d="M1030 860 c-24 -24 -29 -80 -6 -60 8 6 24 27 35 46 16 27 17 34 6 34
-8 0 -24 -9 -35 -20z"/>
<path d="M954 805 c-6 -16 12 -45 27 -45 5 0 9 14 9 30 0 32 -26 43 -36 15z"/>
<path d="M824 776 c-10 -8 -16 -17 -12 -21 4 -4 19 2 34 14 30 24 10 30 -22 7z"/>
<path d="M647 393 c-13 -12 -7 -51 8 -57 17 -6 39 29 31 50 -6 15 -28 19 -39
7z"/>
<path d="M380 386 c0 -8 4 -17 8 -20 13 -8 35 11 28 23 -10 16 -36 14 -36 -3z"/>
<path d="M940 370 c0 -5 5 -10 10 -10 6 0 10 5 10 10 0 6 -4 10 -10 10 -5 0
-10 -4 -10 -10z"/>
<path d="M890 236 c0 -17 5 -26 16 -26 10 0 14 7 12 22 -5 32 -28 35 -28 4z"/>
<path d="M1150 235 c0 -14 4 -25 9 -25 12 0 19 21 13 38 -8 21 -22 13 -22 -13z"/>
</g>
</svg>
